<?xml version="1.0" standalone="no"?>
<!DOCTYPE svg PUBLIC "-//W3C//DTD SVG 20010904//EN"
 "http://www.w3.org/TR/2001/REC-SVG-20010904/DTD/svg10.dtd">
<svg version="1.0" xmlns="http://www.w3.org/2000/svg"
 width="420.000000pt" height="420.000000pt" viewBox="0 0 420.000000 420.000000"
 preserveAspectRatio="xMidYMid meet">
<metadata>
Created by potrace 1.11, written by Peter Selinger 2001-2013
</metadata>
<g transform="translate(0.000000,420.000000) scale(0.100000,-0.100000)"
fill="#000000" stroke="none">
<path d="M1125 3624 c-181 -33 -351 -108 -497 -218 -225 -171 -397 -453 -433
-711 -3 -22 -8 -50 -10 -62 -7 -33 -7 -189 0 -258 11 -107 48 -237 100 -350
68 -149 225 -344 310 -385 110 -53 262 -4 317 103 11 23 27 73 35 112 8 38 25
122 38 185 13 63 26 126 29 140 2 14 7 36 10 50 6 25 13 60 22 115 25 137 47
189 90 205 57 22 132 -19 135 -73 4 -68 -6 -409 -16 -534 -2 -32 -7 -93 -10
-136 -7 -96 -12 -132 -31 -224 -109 -505 274 -1002 797 -1035 72 -5 209 7 251
22 23 7 30 6 39 -11 6 -12 25 -27 43 -34 29 -13 43 -12 117 6 93 23 232 31
300 19 24 -5 64 -11 89 -15 25 -3 52 -8 61 -11 18 -5 41 36 30 54 -4 7 -43 33
-86 59 -89 54 -127 106 -118 164 2 16 33 89 69 162 35 73 75 166 89 207 14 42
36 92 50 112 32 48 111 85 195 93 36 3 81 8 100 10 123 14 212 22 261 24 19 0
44 9 55 19 18 17 76 61 140 107 15 11 36 27 47 36 18 14 24 14 50 1 38 -19
106 -11 145 16 35 25 64 83 68 132 6 105 -133 169 -229 104 -47 -31 -110 -54
-151 -54 -40 0 -96 54 -100 96 -3 35 17 80 44 94 10 6 68 27 127 46 151 51
191 71 218 113 28 42 58 111 49 111 -4 0 5 9 20 21 31 24 34 62 7 81 -10 7
-24 31 -32 53 -41 121 -188 272 -388 401 -53 34 -61 42 -56 64 3 14 7 34 9 45
6 31 -19 94 -50 126 -28 29 -62 36 -110 23 -33 -9 -74 -81 -74 -131 0 -24 -3
-43 -7 -44 -5 0 -20 -3 -35 -5 -20 -3 -28 0 -29 11 -1 8 -3 20 -4 25 -1 6 -3
16 -4 24 0 7 -15 27 -31 45 -25 25 -38 31 -73 31 -69 0 -102 -35 -113 -117 -2
-20 5 -51 20 -83 67 -144 -20 -326 -216 -456 -106 -70 -270 -136 -371 -149
l-45 -6 14 48 c22 73 29 137 29 268 -1 142 -8 200 -41 315 -114 396 -451 708
-859 795 -101 22 -307 26 -400 9z"/>
</g>
</svg>
