<?xml version="1.0" encoding="utf-8"?>
<!-- Generator: Adobe Illustrator 18.1.1, SVG Export Plug-In . SVG Version: 6.00 Build 0)  -->
<svg version="1.1" id="Layer_1" xmlns="http://www.w3.org/2000/svg" xmlns:xlink="http://www.w3.org/1999/xlink" x="0px" y="0px"
	 viewBox="0 0 65 55" enable-background="new 0 0 65 55" xml:space="preserve">
<path opacity="0.55" fill="#FFFFFF" d="M62.1,31.3c-0.2-0.1-0.5-0.1-0.7-0.1c-0.4,0-0.7,0.1-1,0.2c-0.3,0.2-0.6,0.4-0.9,0.7
	l-1.3,0.4c-0.8,0.2-1.6-0.1-2-0.8c-0.1-0.1-0.1-0.2-0.2-0.4c-0.1-0.2-0.1-0.3-0.1-0.5c0-0.5,0.2-0.9,0.5-1.2
	c0.2-0.2,0.4-0.3,0.7-0.4c0,0,4.2-1.3,4.7-1.8c0.5-0.5,1.2-1.6,1.3-2.6c0.4,0,0.7-0.4,0.7-0.8c0-0.4-0.3-0.8-0.7-0.8h0
	c-0.3-3.5-7-7.6-7.5-7.8c0.2-0.4,0.3-0.8,0.3-1.3c0-1.3-0.9-2.4-1.9-2.4c-1.1,0-1.9,1.1-1.9,2.4c0,0.2,0,0.4,0.1,0.6
	c-0.4,0-0.9,0.1-1.3,0.2c0-0.1,0-0.2,0-0.4c0-1.1-0.8-2-1.8-2c-1,0-1.8,0.9-1.8,2c0,0.1,0,0.3,0,0.4c0.1,0.4,0.3,0.8,0.5,1.1
	c0,0,0.1,0.1,0.1,0.1c0,0,0,0.4,0.1,0.6c0.1,0.9,0,1.7-0.3,2.6c-0.5,1.2-1.5,2.4-2.8,3.4c-1.7,1.3-3.9,2.3-6.4,2.9c0,0-0.1,0-0.2,0
	c-0.3,0.1-0.7,0.1-1,0.2c0,0,0,0,0,0c0.1-0.2,0.1-0.4,0.2-0.6c0.1-0.2,0.1-0.5,0.2-0.7c0.3-1.3,0.4-2.6,0.4-3.9
	c0-3.4-0.9-6.5-2.5-9.3c-3.4-5.7-9.8-9.5-17-9.1C9.5,2.9,2,10.5,1.6,19.7c-0.3,5.5,1.9,10.5,5.5,14c0,0,0.1,0.1,0.1,0.1
	C7.9,34.6,8.9,35,10,35c1.8,0,3.3-1.2,3.8-2.8L16,21.5c0,0,0.1-0.7,0.3-1c0.3-0.5,0.8-0.8,1.4-0.8c0.9,0,1.6,0.6,1.7,1.5
	c0,0.1-0.3,11.4-0.8,13.5c-0.5,2.1-0.5,2.4-0.5,3.6c0,0.2,0,0.3,0,0.5c0,0,0,0,0,0c0.3,7.6,6.5,13.6,14.1,13.6
	c1.3,0,2.5-0.2,3.7-0.5c0.2,0.6,0.8,1,1.4,1c0.7,0,1.5-0.3,1.5-0.3c1-0.3,2.1-0.4,3.3-0.4c1.1,0,3.7,0.5,3.9,0.6
	c0.3-0.1,0.5-0.4,0.5-0.7c0-0.1,0-0.2,0-0.3l-2.3-1.3c-1-0.6-1.4-1.9-0.9-3l1.1-2.2c0,0,1.1-2.2,1.4-3.5c0.4-1.5,1.6-2.6,3.2-2.8
	l3-0.3l4.1-0.4h0l1-0.8l2.7-2h0c0.5,0.3,1.1,0.5,1.7,0.4c1-0.1,1.9-0.9,2.1-1.9C64.1,32.8,63.3,31.6,62.1,31.3z"/>
</svg>
