<?xml version="1.0" encoding="utf-8"?>
<!-- Generator: Adobe Illustrator 21.1.0, SVG Export Plug-In . SVG Version: 6.00 Build 0)  -->
<svg version="1.1" id="Layer_1" xmlns="http://www.w3.org/2000/svg" xmlns:xlink="http://www.w3.org/1999/xlink" x="0px" y="0px"
	 viewBox="0 0 500 500" style="enable-background:new 0 0 500 500;" xml:space="preserve">
<style type="text/css">
	.st0{fill:#127CAB;enable-background:new    ;}
	.st1{fill:#032D49;}
</style>
<path class="st0" d="M386.2,195.6c-1-0.5-2.4-0.5-3.3-0.5c-1.9,0-3.3,0.5-4.8,1c-1.4,1-2.9,1.9-4.3,3.3l-6.2,1.9
	c-3.8,1-7.6-0.5-9.5-3.8c-0.5-0.5-0.5-1-1-1.9c-0.5-1-0.5-1.4-0.5-2.4c0-2.4,1-4.3,2.4-5.7c1-1,1.9-1.4,3.3-1.9c0,0,20-6.2,22.4-8.6
	c2.4-2.4,5.7-7.6,6.2-12.4c1.9,0,3.3-1.9,3.3-3.8c0-1.9-1.4-3.8-3.3-3.8l0,0c-1.4-16.7-33.4-36.2-35.7-37.2c1-1.9,1.4-3.8,1.4-6.2
	c0-6.2-4.3-11.4-9.1-11.4c-5.2,0-9.1,5.2-9.1,11.4c0,1,0,1.9,0.5,2.9c-1.9,0-4.3,0.5-6.2,1c0-0.5,0-1,0-1.9c0-5.2-3.8-9.5-8.6-9.5
	s-8.6,4.3-8.6,9.5c0,0.5,0,1.4,0,1.9c0.5,1.9,1.4,3.8,2.4,5.2l0.5,0.5c0,0,0,1.9,0.5,2.9c0.5,4.3,0,8.1-1.4,12.4
	c-2.4,5.7-7.1,11.4-13.3,16.2c-8.1,6.2-18.6,11-30.5,13.8c0,0-0.5,0-1,0c-1.4,0.5-3.3,0.5-4.8,1l0,0c0.5-1,0.5-1.9,1-2.9
	c0.5-1,0.5-2.4,1-3.3c1.4-6.2,1.9-12.4,1.9-18.6c0-16.2-4.3-31-11.9-44.3c-16.2-27.2-46.7-45.3-81-43.4c-43.4,3.3-79.1,39.6-81,83.4
	c-1.4,26.2,9.1,50,26.2,66.7l0.5,0.5c3.3,3.8,8.1,5.7,13.3,5.7c8.6,0,15.7-5.7,18.1-13.3l10.5-51c0,0,0.5-3.3,1.4-4.8
	c1.4-2.4,3.8-3.8,6.7-3.8c4.3,0,7.6,2.9,8.1,7.1c0,0.5-1.4,54.3-3.8,64.3c-2.4,10-2.4,11.4-2.4,17.2c0,1,0,1.4,0,2.4l0,0
	c1.4,36.2,31,64.8,67.2,64.8c6.2,0,11.9-1,17.6-2.4c1,2.9,3.8,4.8,6.7,4.8c3.3,0,7.1-1.4,7.1-1.4c4.8-1.4,10-1.9,15.7-1.9
	c5.2,0,17.6,2.4,18.6,2.9c1.4-0.5,2.4-1.9,2.4-3.3c0-0.5,0-1,0-1.4l-11-6.2c-4.8-2.9-6.7-9.1-4.3-14.3l5.2-10.5
	c0,0,5.2-10.5,6.7-16.7c1.9-7.1,7.6-12.4,15.2-13.3l14.3-1.4l19.5-1.9l0,0l4.8-3.8l12.9-9.5l0,0c2.4,1.4,5.2,2.4,8.1,1.9
	c4.8-0.5,9.1-4.3,10-9.1C395.7,202.8,391.9,197,386.2,195.6z"/>
<g>
	<path class="st1" d="M111.6,346.6c4,2.4,7.1,5.8,9.3,10.2c2.2,4.4,3.3,9.5,3.3,15.2c0,5.7-1.1,10.7-3.3,15c-2.2,4.3-5.2,7.6-9.2,10
		c-4,2.4-8.6,3.6-13.8,3.6c-3.9,0-7.4-0.8-10.4-2.3c-3-1.5-5.6-3.7-7.7-6.6v28.6H63.6v-76.9h16.2v8.3c2-2.9,4.6-5.1,7.6-6.6
		c3-1.5,6.5-2.3,10.2-2.3C102.9,342.9,107.5,344.1,111.6,346.6z M103.9,382.8c2.6-2.9,3.9-6.7,3.9-11.3c0-4.5-1.3-8.3-3.9-11.2
		c-2.6-2.9-6-4.4-10.1-4.4c-4.1,0-7.5,1.5-10.1,4.4c-2.6,2.9-3.9,6.6-3.9,11.2c0,4.7,1.3,8.5,3.9,11.3c2.6,2.9,6,4.3,10.1,4.3
		C98,387.1,101.3,385.7,103.9,382.8z"/>
	<path class="st1" d="M179.9,350.8c4.7,5.2,7.1,12.6,7.1,21.9c0,1.7,0,3-0.1,3.9h-40.5c0.9,3.6,2.7,6.4,5.2,8.3c2.6,2,5.7,3,9.3,3
		c2.7,0,5.2-0.5,7.7-1.5c2.4-1,4.7-2.5,6.6-4.5l8.5,8.6c-2.9,3.2-6.4,5.7-10.4,7.4c-4.1,1.7-8.7,2.6-13.7,2.6
		c-6,0-11.1-1.2-15.6-3.6c-4.4-2.4-7.9-5.7-10.3-10.1c-2.4-4.3-3.6-9.3-3.6-15c0-5.7,1.2-10.8,3.7-15.2c2.4-4.4,5.9-7.8,10.3-10.2
		c4.4-2.4,9.4-3.6,15.1-3.6C168.3,342.9,175.2,345.6,179.9,350.8z M171.8,367.1c-0.1-3.7-1.3-6.7-3.6-8.9c-2.2-2.2-5.2-3.4-8.9-3.4
		c-3.5,0-6.4,1.1-8.8,3.3c-2.3,2.2-3.8,5.2-4.5,9H171.8z"/>
	<path class="st1" d="M246,348.7c3.7,3.9,5.6,9.2,5.6,15.8v35.5h-16.2v-30.8c0-3.6-1-6.4-3-8.5c-2-2.1-4.7-3.1-8.1-3.1
		c-4,0.1-7.1,1.5-9.4,4.1c-2.3,2.7-3.5,6.1-3.5,10.3v27.8h-16.2v-56.5h16.2v9.9c3.9-6.9,10.4-10.4,19.5-10.5
		C237.2,342.8,242.2,344.8,246,348.7z"/>
	<path class="st1" d="M292,356c-3-0.9-5.7-1.4-8.1-1.4c-2,0-3.5,0.4-4.7,1.1c-1.2,0.7-1.8,1.8-1.8,3.1c0,1.5,0.8,2.7,2.4,3.6
		c1.6,0.8,4.2,1.8,7.9,2.8c4,1.2,7.3,2.4,9.9,3.5c2.6,1.2,4.8,2.9,6.7,5.1c1.9,2.3,2.8,5.3,2.8,9c0,5.6-2.2,10-6.5,13.1
		c-4.3,3.1-9.8,4.7-16.5,4.7c-4.6,0-9.1-0.7-13.3-2c-4.3-1.4-8-3.3-11.1-5.8l5.2-10.9c2.9,2.2,6.1,4,9.6,5.2c3.5,1.2,6.9,1.8,10,1.8
		c2.2,0,3.9-0.4,5.2-1.1c1.3-0.7,1.9-1.8,1.9-3.3c0-1.6-0.8-2.9-2.5-3.8c-1.6-0.9-4.3-1.9-7.9-2.9c-3.9-1.1-7.1-2.2-9.6-3.4
		c-2.6-1.1-4.7-2.8-6.6-5.1c-1.8-2.3-2.7-5.2-2.7-8.9c0-5.6,2.1-9.9,6.3-13c4.2-3.1,9.5-4.6,16-4.6c3.8,0,7.7,0.5,11.5,1.6
		c3.8,1.1,7.4,2.6,10.5,4.7l-5.6,11C298.1,358.3,295,356.9,292,356z"/>
	<path class="st1" d="M362.9,350.8c4.7,5.2,7.1,12.6,7.1,21.9c0,1.7,0,3-0.1,3.9h-40.5c0.9,3.6,2.7,6.4,5.2,8.3c2.6,2,5.7,3,9.3,3
		c2.7,0,5.2-0.5,7.7-1.5c2.4-1,4.7-2.5,6.6-4.5l8.5,8.6c-2.9,3.2-6.4,5.7-10.4,7.4c-4.1,1.7-8.7,2.6-13.7,2.6
		c-6,0-11.1-1.2-15.6-3.6c-4.4-2.4-7.9-5.7-10.3-10.1c-2.4-4.3-3.6-9.3-3.6-15c0-5.7,1.2-10.8,3.7-15.2c2.4-4.4,5.9-7.8,10.3-10.2
		c4.4-2.4,9.5-3.6,15.1-3.6C351.3,342.9,358.2,345.6,362.9,350.8z M354.8,367.1c-0.1-3.7-1.3-6.7-3.6-8.9c-2.2-2.2-5.2-3.4-8.9-3.4
		c-3.5,0-6.4,1.1-8.8,3.3c-2.3,2.2-3.8,5.2-4.5,9H354.8z"/>
	<path class="st1" d="M421.9,346.5c4.6,2.4,8.1,5.7,10.7,10.1c2.5,4.3,3.8,9.4,3.8,15.1c0,5.7-1.3,10.7-3.8,15.1
		c-2.5,4.4-6.1,7.8-10.7,10.2c-4.6,2.4-9.9,3.6-15.8,3.6c-6,0-11.3-1.2-15.9-3.6c-4.6-2.4-8.1-5.8-10.7-10.2
		c-2.5-4.4-3.8-9.4-3.8-15.1c0-5.7,1.3-10.8,3.8-15.1c2.5-4.3,6.1-7.7,10.7-10.1c4.6-2.4,9.9-3.6,15.9-3.6
		C412.1,342.9,417.4,344.1,421.9,346.5z M395.9,360.7c-2.6,2.9-3.9,6.6-3.9,11.2c0,4.6,1.3,8.4,3.9,11.2c2.6,2.9,6,4.3,10.2,4.3
		c4.1,0,7.5-1.4,10.1-4.3c2.6-2.9,3.9-6.6,3.9-11.2c0-4.6-1.3-8.4-3.9-11.2c-2.6-2.9-6-4.3-10.1-4.3
		C401.9,356.4,398.5,357.8,395.9,360.7z"/>
</g>
</svg>
